<svg width="46" height="46" viewBox="0 0 46 46" fill="none" xmlns="http://www.w3.org/2000/svg">
<rect x="1.5" y="1.5" width="43" height="43" stroke="black" stroke-width="1.6125"/>
<g clip-path="url(#clip0_4070_2234)">
<path d="M26.4922 23C26.4922 24.9287 24.9287 26.4922 23 26.4922C21.0714 26.4922 19.5079 24.9287 19.5079 23C19.5079 21.0714 21.0714 19.5079 23 19.5079C24.9287 19.5079 26.4922 21.0714 26.4922 23Z" fill="black" stroke="black" stroke-width="1.6125"/>
<path d="M34.6539 20.5079L34.6547 20.5093C35.5985 22.0358 35.5985 23.9646 34.6547 25.4911L34.6539 25.4925C33.0231 28.1483 29.3736 32.5049 23.0001 32.5049C16.6266 32.5049 12.977 28.1483 11.3463 25.4925L11.3454 25.4911C10.4017 23.9646 10.4017 22.0358 11.3454 20.5093L11.3463 20.5079C12.977 17.8521 16.6266 13.4955 23.0001 13.4955C29.3736 13.4955 33.0231 17.8521 34.6539 20.5079ZM23.0001 29.9853H23.0006C26.8565 29.9814 29.9813 26.8566 29.9852 23.0007V23.0002C29.9852 19.1424 26.8578 16.015 23.0001 16.015C19.1423 16.015 16.015 19.1424 16.015 23.0002C16.015 26.8579 19.1423 29.9853 23.0001 29.9853Z" fill="black" stroke="black" stroke-width="1.075"/>
</g>
<defs>
<clipPath id="clip0_4070_2234">
<rect width="25.8" height="25.8" fill="white" transform="translate(10.1001 10.1001)"/>
</clipPath>
</defs>
</svg>
